<svg xmlns="http://www.w3.org/2000/svg" viewBox="0 0 180 180" role="img" aria-label="Gretchen Ugalde monogram app icon">
  <rect width="180" height="180" rx="42" fill="#fbf8ef" />
  <rect x="16" y="16" width="148" height="148" rx="34" fill="none" stroke="#c9982b" stroke-width="4" />
  <path d="M68 53c-18.3 0-30.6 13.5-30.6 34.1 0 20.6 12 35.3 32.8 35.3 9.1 0 17.1-2.5 23.3-6.9V88.8H69.4v7.7h15.2v14.3c-3.2 2-8 3.4-13.7 3.4-15.6 0-24.1-11.4-24.1-27.9 0-16.2 8.7-26.3 22.6-26.3 7.1 0 12.7 2.2 17.6 6l4-6.3C86 55.3 78 53 68 53z" fill="#201712" />
  <path d="M104.7 55.5v41.2c0 16.5 7.7 25.7 22.8 25.7 15.4 0 24.4-9.5 24.4-26.8V55.5h-8.5v39.7c0 13.5-6 19.3-15.6 19.3-9.7 0-14.8-5.6-14.8-18.6V55.5z" fill="#201712" />
</svg>
