<svg xmlns="http://www.w3.org/2000/svg" viewBox="0 0 64 64" role="img" aria-label="Gretchen Ugalde monogram favicon">
  <rect width="64" height="64" rx="16" fill="#fbf8ef" />
  <rect x="6" y="6" width="52" height="52" rx="13" fill="none" stroke="#c9982b" stroke-width="1.5" />
  <path d="M24.3 19.8c-6.5 0-10.8 4.7-10.8 12 0 7.2 4.2 12.4 11.6 12.4 3.2 0 6-.9 8.2-2.4v-9.4h-8.5v2.7h5.4v5.1c-1.1.7-2.8 1.2-4.8 1.2-5.5 0-8.5-4-8.5-9.8 0-5.7 3.1-9.3 8-9.3 2.5 0 4.5.8 6.2 2.1l1.4-2.2c-1.8-1.6-4.6-2.4-8.2-2.4z" fill="#201712" />
  <path d="M37.4 20.7v14.5c0 5.8 2.7 9 8 9 5.4 0 8.6-3.3 8.6-9.4V20.7h-3v14c0 4.8-2.1 6.8-5.5 6.8-3.4 0-5.2-2-5.2-6.5V20.7z" fill="#201712" />
</svg>
